<svg enable-background="new 0 0 264 88" viewBox="0 0 264 88" xmlns="http://www.w3.org/2000/svg"><path d="m28 14.9v3c0 .5-.4.9-.9.9s-.9-.4-.9-.9v-2.1h-2.2c-.5 0-.9-.4-.9-.9s.4-.9.9-.9h3c.6 0 1 .4 1 .9zm-10 11.3h-2.1v-2.1c0-.5-.4-.9-.9-.9s-1 .4-1 .9v3c0 .5.4.9.9.9h3c.5 0 .9-.4.9-.9s-.3-.9-.8-.9zm9.1-3c-.5 0-.9.4-.9.9v2.1h-2.2c-.5 0-.9.4-.9.9s.4.9.9.9h3c.5 0 .9-.4.9-.9v-3c.1-.5-.3-.9-.8-.9zm-9.1-9.2h-3c-.5 0-.9.4-.9.9v3c0 .5.4.9.9.9s.9-.4.9-.9v-2.1h2.1c.5 0 .9-.4.9-.9s-.4-.9-.9-.9z" fill="#fff"/><path d="m27.7 70.6c.3.3.3.9 0 1.2s-.9.3-1.2 0l-4.5-4.5-4.5 4.5c-.3.3-.9.3-1.2 0s-.3-.9 0-1.2l4.5-4.5-4.5-4.5c-.3-.3-.3-.9 0-1.2s.9-.3 1.2 0l4.5 4.5 4.5-4.5c.3-.3.9-.3 1.2 0s.3.9 0 1.2l-4.5 4.5z" fill="#121319"/><g fill="#fff"><path d="m65.9 18.6v-3.7c0-.5.4-.9.9-.9s.9.4.9.9v2.7h2.7c.5 0 .9.4.9.9s-.4.9-.9.9h-3.7c-.4.1-.8-.3-.8-.8zm-4 3.9h-3.7c-.5 0-.9.4-.9.9s.4.9.9.9h2.8v2.7c0 .5.4.9.9.9s.9-.4.9-.9v-3.7c0-.4-.4-.8-.9-.8zm8.5 0h-3.7c-.5 0-.9.4-.9.9v3.7c0 .5.4.9.9.9s.9-.4.9-.9v-2.7h2.7c.5 0 .9-.4.9-.9.1-.6-.3-1-.8-1zm-8.5-8.5c-.5 0-.9.4-.9.9v2.7h-2.7c-.5 0-.9.4-.9.9s.4.9.9.9h3.7c.5 0 .9-.4.9-.9v-3.7c-.1-.4-.5-.8-1-.8z"/><path d="m68.4 66.8c-.6 0-1.3.2-1.8.7l-2.5-1.6c.2-.5.2-1 0-1.5l2.5-1.6c1.1 1 2.8.9 3.7-.2 1-1.1.9-2.8-.2-3.7s-2.8-.9-3.7.2c-.6.7-.8 1.6-.5 2.5l-2.5 1.6c-1.1-1-2.8-.9-3.8.2s-.9 2.8.2 3.8c1 .9 2.5.9 3.5 0l2.5 1.6c-.4 1.4.4 2.9 1.8 3.3s2.9-.4 3.3-1.8-.4-2.9-1.8-3.3c-.2-.2-.5-.2-.7-.2zm0-7.3c.7 0 1.2.5 1.2 1.2s-.5 1.3-1.2 1.3-1.2-.5-1.2-1.2.5-1.3 1.2-1.3zm-6.8 6.8c-.7 0-1.2-.5-1.2-1.2s.5-1.2 1.2-1.2 1.2.5 1.2 1.2-.5 1.2-1.2 1.2zm6.8 4.3c-.7 0-1.2-.5-1.2-1.2s.5-1.2 1.2-1.2 1.2.5 1.2 1.2-.5 1.2-1.2 1.2z"/><path d="m110.8 20c0 .4-.3.8-.8.8h-1.3v1.3c0 .4-.3.8-.8.8s-.8-.3-.8-.8v-1.3h-1.3c-.4 0-.8-.3-.8-.8s.3-.8.8-.8h1.3v-1.3c0-.4.3-.8.8-.8s.8.3.8.8v1.3h1.3c.5 0 .8.4.8.8zm5 7.8c-.3.3-.8.3-1.1 0l-3.1-3.1c-2.6 2-6.4 1.5-8.4-1.1s-1.5-6.4 1.1-8.4 6.4-1.5 8.4 1.1c1.6 2.1 1.6 5.1 0 7.3l3.1 3.1c.3.3.3.8 0 1.1zm-7.8-3.4c2.4 0 4.4-2 4.4-4.4s-2-4.4-4.4-4.4-4.4 2-4.4 4.4 1.9 4.4 4.4 4.4z"/><path d="m154.2 20c0 .4-.3.8-.8.8h-4.1c-.4 0-.8-.3-.8-.8s.3-.8.8-.8h4.1c.4 0 .8.4.8.8zm4.9 7.8c-.3.3-.8.3-1.1 0l-3.1-3.1c-2.6 2-6.4 1.5-8.4-1.1s-1.5-6.4 1.1-8.4 6.4-1.5 8.4 1.1c1.6 2.1 1.6 5.1 0 7.3l3.1 3.1c.3.3.3.8 0 1.1zm-7.8-3.4c2.4 0 4.4-2 4.4-4.4s-2-4.4-4.4-4.4-4.4 2-4.4 4.4 2 4.4 4.4 4.4z"/></g><g fill="#121319"><path d="m114.2 66.7-5.2 5.2c-.3.3-.8.3-1.1 0s-.3-.8 0-1.1l4.7-4.7-4.7-4.7c-.3-.3-.3-.8 0-1.1s.8-.3 1.1 0l5.2 5.2c.3.4.3.8 0 1.2z"/><path d="m156.3 70.6c.3.3.3.8 0 1.1s-.8.3-1.1 0l-5.2-5.2c-.3-.3-.3-.8 0-1.1l5.2-5.2c.3-.3.8-.3 1.1 0s.3.8 0 1.1l-4.7 4.7z"/></g></svg>